<mxfile host="app.diagrams.net" modified="2024-02-19T07:56:34.962Z" agent="Mozilla/5.0 (Windows NT 10.0; Win64; x64) AppleWebKit/537.36 (KHTML, like Gecko) Chrome/121.0.0.0 Safari/537.36" version="23.1.5" etag="-t5LweNkCVdtt_Nu4Bjw" type="github">
  <diagram name="Halaman-1" id="dGs4Clej9PPigDJ_YoBb">
    <mxGraphModel>
      <root>
        <mxCell id="0" />
        <mxCell id="1" parent="0" />
      </root>
    </mxGraphModel>
  </diagram>
</mxfile>
